<mxfile host="55540eb0-9a7a-4dd8-b323-f5df009b3819" modified="2020-08-03T03:54:09.532Z" agent="5.0 (Macintosh; Intel Mac OS X 10_14_6) AppleWebKit/537.36 (KHTML, like Gecko) Code/1.47.1 Chrome/78.0.3904.130 Electron/7.3.2 Safari/537.36" etag="UQ08jq5UA4BdfO445FyV" version="13.1.3" pages="2">
    <diagram id="6hGFLwfOUW9BJ-s0fimq" name="DP">
        <mxGraphModel dx="1931" dy="813" grid="1" gridSize="10" guides="1" tooltips="1" connect="1" arrows="1" fold="1" page="1" pageScale="1" pageWidth="827" pageHeight="1169" math="0" shadow="0">
            <root>
                <mxCell id="0"/>
                <mxCell id="1" parent="0"/>
                <mxCell id="2" value="" style="rounded=0;whiteSpace=wrap;html=1;fillColor=#60a917;strokeColor=#2D7600;fontColor=#ffffff;" parent="1" vertex="1">
                    <mxGeometry x="120" y="280" width="40" height="40" as="geometry"/>
                </mxCell>
                <mxCell id="3" value="" style="rounded=0;whiteSpace=wrap;html=1;fillColor=#60a917;strokeColor=#2D7600;fontColor=#ffffff;" parent="1" vertex="1">
                    <mxGeometry x="200" y="280" width="40" height="40" as="geometry"/>
                </mxCell>
                <mxCell id="4" value="" style="rounded=0;whiteSpace=wrap;html=1;fillColor=#60a917;strokeColor=#2D7600;fontColor=#ffffff;" parent="1" vertex="1">
                    <mxGeometry x="280" y="280" width="40" height="40" as="geometry"/>
                </mxCell>
                <mxCell id="5" value="" style="rounded=0;whiteSpace=wrap;html=1;fillColor=#60a917;strokeColor=#2D7600;fontColor=#ffffff;" parent="1" vertex="1">
                    <mxGeometry x="360" y="280" width="40" height="40" as="geometry"/>
                </mxCell>
                <mxCell id="6" value="" style="rounded=0;whiteSpace=wrap;html=1;fillColor=#60a917;strokeColor=#2D7600;fontColor=#ffffff;" parent="1" vertex="1">
                    <mxGeometry x="440" y="280" width="40" height="40" as="geometry"/>
                </mxCell>
                <mxCell id="7" value="n" style="text;html=1;align=center;verticalAlign=middle;resizable=0;points=[];autosize=1;" parent="1" vertex="1">
                    <mxGeometry x="325" y="190" width="20" height="20" as="geometry"/>
                </mxCell>
                <mxCell id="8" value="dp[0]" style="text;html=1;align=center;verticalAlign=middle;resizable=0;points=[];autosize=1;" parent="1" vertex="1">
                    <mxGeometry x="120" y="337" width="40" height="20" as="geometry"/>
                </mxCell>
                <mxCell id="9" value="0" style="text;html=1;align=center;verticalAlign=middle;resizable=0;points=[];autosize=1;" parent="1" vertex="1">
                    <mxGeometry x="130" y="250" width="20" height="20" as="geometry"/>
                </mxCell>
                <mxCell id="14" value="i=0" style="text;html=1;align=center;verticalAlign=middle;resizable=0;points=[];autosize=1;" parent="1" vertex="1">
                    <mxGeometry x="125" y="380" width="30" height="20" as="geometry"/>
                </mxCell>
                <mxCell id="15" value="i=1" style="text;html=1;align=center;verticalAlign=middle;resizable=0;points=[];autosize=1;" parent="1" vertex="1">
                    <mxGeometry x="205" y="380" width="30" height="20" as="geometry"/>
                </mxCell>
                <mxCell id="16" value="i=2" style="text;html=1;align=center;verticalAlign=middle;resizable=0;points=[];autosize=1;" parent="1" vertex="1">
                    <mxGeometry x="285" y="380" width="30" height="20" as="geometry"/>
                </mxCell>
                <mxCell id="18" value="i=n-1" style="text;html=1;align=center;verticalAlign=middle;resizable=0;points=[];autosize=1;" parent="1" vertex="1">
                    <mxGeometry x="360" y="380" width="40" height="20" as="geometry"/>
                </mxCell>
                <mxCell id="19" value="n" style="text;html=1;align=center;verticalAlign=middle;resizable=0;points=[];autosize=1;" parent="1" vertex="1">
                    <mxGeometry x="450" y="250" width="20" height="20" as="geometry"/>
                </mxCell>
                <mxCell id="20" value="dp[n]" style="text;html=1;align=center;verticalAlign=middle;resizable=0;points=[];autosize=1;" parent="1" vertex="1">
                    <mxGeometry x="440" y="337" width="40" height="20" as="geometry"/>
                </mxCell>
                <mxCell id="21" value="" style="shape=curlyBracket;whiteSpace=wrap;html=1;rounded=1;rotation=90;" parent="1" vertex="1">
                    <mxGeometry x="325" y="105" width="20" height="270" as="geometry"/>
                </mxCell>
                <mxCell id="22" value="dp[1]" style="text;html=1;align=center;verticalAlign=middle;resizable=0;points=[];autosize=1;" parent="1" vertex="1">
                    <mxGeometry x="205" y="337" width="40" height="20" as="geometry"/>
                </mxCell>
                <mxCell id="23" value="1" style="text;html=1;align=center;verticalAlign=middle;resizable=0;points=[];autosize=1;" parent="1" vertex="1">
                    <mxGeometry x="210" y="250" width="20" height="20" as="geometry"/>
                </mxCell>
                <mxCell id="24" value="dp[i+1]" style="text;html=1;align=center;verticalAlign=middle;resizable=0;points=[];autosize=1;" parent="1" vertex="1">
                    <mxGeometry x="115" y="430" width="50" height="20" as="geometry"/>
                </mxCell>
                <mxCell id="25" value="dp[i+1]" style="text;html=1;align=center;verticalAlign=middle;resizable=0;points=[];autosize=1;" parent="1" vertex="1">
                    <mxGeometry x="195" y="430" width="50" height="20" as="geometry"/>
                </mxCell>
                <mxCell id="26" value="dp[i+1]" style="text;html=1;align=center;verticalAlign=middle;resizable=0;points=[];autosize=1;" parent="1" vertex="1">
                    <mxGeometry x="275" y="430" width="50" height="20" as="geometry"/>
                </mxCell>
                <mxCell id="27" value="dp[i+1]" style="text;html=1;align=center;verticalAlign=middle;resizable=0;points=[];autosize=1;" parent="1" vertex="1">
                    <mxGeometry x="355" y="430" width="50" height="20" as="geometry"/>
                </mxCell>
                <mxCell id="29" value="i &amp;lt; n" style="text;html=1;align=center;verticalAlign=middle;resizable=0;points=[];autosize=1;" parent="1" vertex="1">
                    <mxGeometry x="360" y="480" width="40" height="20" as="geometry"/>
                </mxCell>
                <mxCell id="30" value="DP" style="text;html=1;align=center;verticalAlign=middle;resizable=0;points=[];autosize=1;" parent="1" vertex="1">
                    <mxGeometry x="50" y="337" width="30" height="20" as="geometry"/>
                </mxCell>
                <mxCell id="31" value="添字" style="text;html=1;align=center;verticalAlign=middle;resizable=0;points=[];autosize=1;" parent="1" vertex="1">
                    <mxGeometry x="50" y="380" width="40" height="20" as="geometry"/>
                </mxCell>
                <mxCell id="32" value="漸化式" style="text;html=1;align=center;verticalAlign=middle;resizable=0;points=[];autosize=1;" parent="1" vertex="1">
                    <mxGeometry x="45" y="430" width="50" height="20" as="geometry"/>
                </mxCell>
                <mxCell id="33" value="" style="shape=curlyBracket;whiteSpace=wrap;html=1;rounded=1;rotation=90;" parent="1" vertex="1">
                    <mxGeometry x="252.5" y="27.5" width="20" height="275" as="geometry"/>
                </mxCell>
                <mxCell id="34" value="loop : n.times" style="text;html=1;align=center;verticalAlign=middle;resizable=0;points=[];autosize=1;" parent="1" vertex="1">
                    <mxGeometry x="216" y="120" width="90" height="20" as="geometry"/>
                </mxCell>
                <mxCell id="35" value="n-1" style="text;html=1;align=center;verticalAlign=middle;resizable=0;points=[];autosize=1;" parent="1" vertex="1">
                    <mxGeometry x="365" y="250" width="30" height="20" as="geometry"/>
                </mxCell>
            </root>
        </mxGraphModel>
    </diagram>
    <diagram id="o-UbGA_e7pUEGdBZ_S-a" name="累積和">
        <mxGraphModel dx="1931" dy="813" grid="1" gridSize="10" guides="1" tooltips="1" connect="1" arrows="1" fold="1" page="1" pageScale="1" pageWidth="827" pageHeight="1169" math="0" shadow="0">
            <root>
                <mxCell id="auqlSFN50E8ZhjRSyr_w-0"/>
                <mxCell id="auqlSFN50E8ZhjRSyr_w-1" parent="auqlSFN50E8ZhjRSyr_w-0"/>
                <mxCell id="auqlSFN50E8ZhjRSyr_w-2" value="4" style="whiteSpace=wrap;html=1;aspect=fixed;" parent="auqlSFN50E8ZhjRSyr_w-1" vertex="1">
                    <mxGeometry x="240" y="280" width="40" height="40" as="geometry"/>
                </mxCell>
                <mxCell id="auqlSFN50E8ZhjRSyr_w-3" value="5" style="whiteSpace=wrap;html=1;aspect=fixed;" parent="auqlSFN50E8ZhjRSyr_w-1" vertex="1">
                    <mxGeometry x="280" y="280" width="40" height="40" as="geometry"/>
                </mxCell>
                <mxCell id="auqlSFN50E8ZhjRSyr_w-4" value="2" style="whiteSpace=wrap;html=1;aspect=fixed;" parent="auqlSFN50E8ZhjRSyr_w-1" vertex="1">
                    <mxGeometry x="320" y="280" width="40" height="40" as="geometry"/>
                </mxCell>
                <mxCell id="auqlSFN50E8ZhjRSyr_w-5" value="1" style="whiteSpace=wrap;html=1;aspect=fixed;" parent="auqlSFN50E8ZhjRSyr_w-1" vertex="1">
                    <mxGeometry x="360" y="280" width="40" height="40" as="geometry"/>
                </mxCell>
                <mxCell id="auqlSFN50E8ZhjRSyr_w-6" value="6" style="whiteSpace=wrap;html=1;aspect=fixed;" parent="auqlSFN50E8ZhjRSyr_w-1" vertex="1">
                    <mxGeometry x="400" y="280" width="40" height="40" as="geometry"/>
                </mxCell>
                <mxCell id="auqlSFN50E8ZhjRSyr_w-7" value="4" style="whiteSpace=wrap;html=1;aspect=fixed;" parent="auqlSFN50E8ZhjRSyr_w-1" vertex="1">
                    <mxGeometry x="440" y="280" width="40" height="40" as="geometry"/>
                </mxCell>
                <mxCell id="auqlSFN50E8ZhjRSyr_w-8" value="2" style="whiteSpace=wrap;html=1;aspect=fixed;" parent="auqlSFN50E8ZhjRSyr_w-1" vertex="1">
                    <mxGeometry x="480" y="280" width="40" height="40" as="geometry"/>
                </mxCell>
                <mxCell id="auqlSFN50E8ZhjRSyr_w-9" value="3" style="whiteSpace=wrap;html=1;aspect=fixed;" parent="auqlSFN50E8ZhjRSyr_w-1" vertex="1">
                    <mxGeometry x="520" y="280" width="40" height="40" as="geometry"/>
                </mxCell>
                <mxCell id="auqlSFN50E8ZhjRSyr_w-10" value="2" style="whiteSpace=wrap;html=1;aspect=fixed;" parent="auqlSFN50E8ZhjRSyr_w-1" vertex="1">
                    <mxGeometry x="560" y="280" width="40" height="40" as="geometry"/>
                </mxCell>
                <mxCell id="auqlSFN50E8ZhjRSyr_w-14" value="0+4" style="whiteSpace=wrap;html=1;aspect=fixed;" parent="auqlSFN50E8ZhjRSyr_w-1" vertex="1">
                    <mxGeometry x="240" y="360" width="40" height="40" as="geometry"/>
                </mxCell>
                <mxCell id="auqlSFN50E8ZhjRSyr_w-15" value="0+4+5" style="whiteSpace=wrap;html=1;aspect=fixed;" parent="auqlSFN50E8ZhjRSyr_w-1" vertex="1">
                    <mxGeometry x="280" y="360" width="40" height="40" as="geometry"/>
                </mxCell>
                <mxCell id="auqlSFN50E8ZhjRSyr_w-16" value="" style="whiteSpace=wrap;html=1;aspect=fixed;strokeColor=#FF3333;" parent="auqlSFN50E8ZhjRSyr_w-1" vertex="1">
                    <mxGeometry x="320" y="360" width="40" height="40" as="geometry"/>
                </mxCell>
                <mxCell id="auqlSFN50E8ZhjRSyr_w-17" value="" style="whiteSpace=wrap;html=1;aspect=fixed;" parent="auqlSFN50E8ZhjRSyr_w-1" vertex="1">
                    <mxGeometry x="360" y="360" width="40" height="40" as="geometry"/>
                </mxCell>
                <mxCell id="auqlSFN50E8ZhjRSyr_w-18" value="" style="whiteSpace=wrap;html=1;aspect=fixed;" parent="auqlSFN50E8ZhjRSyr_w-1" vertex="1">
                    <mxGeometry x="400" y="360" width="40" height="40" as="geometry"/>
                </mxCell>
                <mxCell id="auqlSFN50E8ZhjRSyr_w-19" value="" style="whiteSpace=wrap;html=1;aspect=fixed;" parent="auqlSFN50E8ZhjRSyr_w-1" vertex="1">
                    <mxGeometry x="440" y="360" width="40" height="40" as="geometry"/>
                </mxCell>
                <mxCell id="auqlSFN50E8ZhjRSyr_w-20" value="" style="whiteSpace=wrap;html=1;aspect=fixed;" parent="auqlSFN50E8ZhjRSyr_w-1" vertex="1">
                    <mxGeometry x="480" y="360" width="40" height="40" as="geometry"/>
                </mxCell>
                <mxCell id="auqlSFN50E8ZhjRSyr_w-21" value="" style="whiteSpace=wrap;html=1;aspect=fixed;" parent="auqlSFN50E8ZhjRSyr_w-1" vertex="1">
                    <mxGeometry x="520" y="360" width="40" height="40" as="geometry"/>
                </mxCell>
                <mxCell id="auqlSFN50E8ZhjRSyr_w-22" value="" style="whiteSpace=wrap;html=1;aspect=fixed;" parent="auqlSFN50E8ZhjRSyr_w-1" vertex="1">
                    <mxGeometry x="560" y="360" width="40" height="40" as="geometry"/>
                </mxCell>
                <mxCell id="auqlSFN50E8ZhjRSyr_w-23" value="0" style="whiteSpace=wrap;html=1;aspect=fixed;" parent="auqlSFN50E8ZhjRSyr_w-1" vertex="1">
                    <mxGeometry x="200" y="360" width="40" height="40" as="geometry"/>
                </mxCell>
                <mxCell id="auqlSFN50E8ZhjRSyr_w-24" value="w" style="text;html=1;align=center;verticalAlign=middle;resizable=0;points=[];autosize=1;" parent="auqlSFN50E8ZhjRSyr_w-1" vertex="1">
                    <mxGeometry x="130" y="290" width="20" height="20" as="geometry"/>
                </mxCell>
                <mxCell id="auqlSFN50E8ZhjRSyr_w-25" value="s(累積和)" style="text;html=1;align=center;verticalAlign=middle;resizable=0;points=[];autosize=1;" parent="auqlSFN50E8ZhjRSyr_w-1" vertex="1">
                    <mxGeometry x="110" y="370" width="60" height="20" as="geometry"/>
                </mxCell>
                <mxCell id="u9cF9FuQSbxt8TstORCc-0" value="0" style="text;html=1;align=center;verticalAlign=middle;resizable=0;points=[];autosize=1;" parent="auqlSFN50E8ZhjRSyr_w-1" vertex="1">
                    <mxGeometry x="250" y="240" width="20" height="20" as="geometry"/>
                </mxCell>
                <mxCell id="u9cF9FuQSbxt8TstORCc-1" value="n-1" style="text;html=1;align=center;verticalAlign=middle;resizable=0;points=[];autosize=1;" parent="auqlSFN50E8ZhjRSyr_w-1" vertex="1">
                    <mxGeometry x="565" y="240" width="30" height="20" as="geometry"/>
                </mxCell>
                <mxCell id="u9cF9FuQSbxt8TstORCc-2" value="n-2" style="text;html=1;align=center;verticalAlign=middle;resizable=0;points=[];autosize=1;" parent="auqlSFN50E8ZhjRSyr_w-1" vertex="1">
                    <mxGeometry x="525" y="240" width="30" height="20" as="geometry"/>
                </mxCell>
                <mxCell id="kWirxy5_HwYKTuAaUtwc-0" value="0" style="text;html=1;align=center;verticalAlign=middle;resizable=0;points=[];autosize=1;" parent="auqlSFN50E8ZhjRSyr_w-1" vertex="1">
                    <mxGeometry x="210" y="330" width="20" height="20" as="geometry"/>
                </mxCell>
                <mxCell id="kWirxy5_HwYKTuAaUtwc-1" value="3" style="text;html=1;align=center;verticalAlign=middle;resizable=0;points=[];autosize=1;" parent="auqlSFN50E8ZhjRSyr_w-1" vertex="1">
                    <mxGeometry x="330" y="330" width="20" height="20" as="geometry"/>
                </mxCell>
                <mxCell id="kWirxy5_HwYKTuAaUtwc-2" value="n" style="text;html=1;align=center;verticalAlign=middle;resizable=0;points=[];autosize=1;" parent="auqlSFN50E8ZhjRSyr_w-1" vertex="1">
                    <mxGeometry x="570" y="330" width="20" height="20" as="geometry"/>
                </mxCell>
                <mxCell id="kWirxy5_HwYKTuAaUtwc-3" value="n-1" style="text;html=1;align=center;verticalAlign=middle;resizable=0;points=[];autosize=1;" parent="auqlSFN50E8ZhjRSyr_w-1" vertex="1">
                    <mxGeometry x="525" y="330" width="30" height="20" as="geometry"/>
                </mxCell>
            </root>
        </mxGraphModel>
    </diagram>
</mxfile>